PathFileType	4	(X/Y/Z)	/Volumes/GoogleDrive/My Drive/Research/Stanford/Projects/Digital Athlete Project/Sprinting/Sprint Simulation/sprinter/subjects/JA1/experimental_data/TRC/run0350cms.trc
DataRate	CameraRate	NumFrames	NumMarkers	Units	OrigDataRate	OrigDataStartFrame	OrigNumFrames
250.000000	250.000000	4	53	mm	250.000000	210	836
Frame#	Time	C7			RSH			LSH			MAN			T7			LARM			LELB			LFOREARM			LWR			RARM			RELB			RFOREARM			RWR			RASI			LASI			SACR			P1			P2			P3			LTHLP			LTHLD			LTHAP			LTHAD			LLEPI			LPAT			LTIAP			LTIAD			LTILAT			LLMAL			LHEEL			LMFS			LMFL			LP1MT			LTOE			LP5MT			RTHLP			RTHLD			RTHAP			RTHAD			RLEPI			RPAT			RTIAP			RTIAD			RTILAT			RLMAL			RHEEL			RMFS			RMFL			RP1MT			RTOE			RP5MT			x52			x53			
		X1	Y1	Z1	X2	Y2	Z2	X3	Y3	Z3	X4	Y4	Z4	X5	Y5	Z5	X6	Y6	Z6	X7	Y7	Z7	X8	Y8	Z8	X9	Y9	Z9	X10	Y10	Z10	X11	Y11	Z11	X12	Y12	Z12	X13	Y13	Z13	X14	Y14	Z14	X15	Y15	Z15	X16	Y16	Z16	X17	Y17	Z17	X18	Y18	Z18	X19	Y19	Z19	X20	Y20	Z20	X21	Y21	Z21	X22	Y22	Z22	X23	Y23	Z23	X24	Y24	Z24	X25	Y25	Z25	X26	Y26	Z26	X27	Y27	Z27	X28	Y28	Z28	X29	Y29	Z29	X30	Y30	Z30	X31	Y31	Z31	X32	Y32	Z32	X33	Y33	Z33	X34	Y34	Z34	X35	Y35	Z35	X36	Y36	Z36	X37	Y37	Z37	X38	Y38	Z38	X39	Y39	Z39	X40	Y40	Z40	X41	Y41	Z41	X42	Y42	Z42	X43	Y43	Z43	X44	Y44	Z44	X45	Y45	Z45	X46	Y46	Z46	X47	Y47	Z47	X48	Y48	Z48	X49	Y49	Z49	X50	Y50	Z50	X51	Y51	Z51	X52	Y52	Z52	X53	Y53	Z53	
210	0.840000	-2478.250488	1601.392944	225.904495	-2461.119629	1596.263062	394.523895	-2445.054199	1583.944214	70.560097	-2344.546143	1503.035156	252.154297	-2551.133301	1415.268311	229.871979	-2477.173584	1399.291382	-28.694927	-2500.311768	1265.436157	-61.037216	-2377.174316	1277.644653	5.556535	-2267.568604	1297.324951	57.859810	-2591.287354	1499.477905	482.840118	-2704.769287	1425.868408	524.741211	-2659.187500	1288.003418	538.372070	-2626.960938	1158.484741	535.810913	-2366.417725	1128.390259	326.760498	-2387.357910	1110.816406	118.153809	-2555.437012	1172.758789	253.701248	-2569.546387	1146.578491	201.547409	-2565.398926	1142.008423	308.472107	-2597.884521	1089.758545	254.516342	-2568.147217	841.409912	70.122833	-2602.371094	733.944092	89.459030	-2441.295166	792.801758	140.999893	-2493.296631	689.511169	154.114380	-2649.999512	627.175293	120.436928	-2571.901367	566.562256	173.075729	-2775.158691	500.699249	194.457855	-2898.579590	436.818604	201.781174	-2866.434570	515.423645	131.629745	-3048.614746	395.654785	161.300369	-3085.545410	442.379486	221.486633	-3020.592041	286.994232	200.750107	-3069.533203	312.903412	149.757156	-3049.219482	217.398346	240.212891	-3037.440430	189.251053	197.095093	-3100.235107	241.780930	127.531715	-2388.676758	862.863159	436.680420	-2337.600098	761.365845	423.349213	-2272.657715	874.854553	347.087555	-2242.044434	785.427185	339.250885	-2273.087891	627.649902	385.929749	-2191.112061	654.553284	326.814850	-2202.043213	426.278168	300.808624	-2183.648926	301.345795	285.196747	-2242.951660	403.177826	381.877686	-2177.586182	171.441666	337.207764	-2241.325195	133.027817	288.308197	-2072.340332	182.252853	289.545563	-2106.172852	135.640976	338.316772	-2012.184937	147.017761	237.060883	-1980.497192	160.603348	272.900421	-2028.517822	101.103699	352.876099	-2211.861572	1307.327393	84.442955	-2608.938721	1086.053345	534.378662
211	0.844000	-2463.202637	1599.958374	226.371292	-2445.887451	1594.568115	395.168549	-2430.831299	1582.606567	70.979584	-2329.948975	1501.429688	252.186905	-2537.200928	1414.181274	230.716873	-2464.424072	1398.571899	-28.531393	-2488.190430	1264.808960	-60.978127	-2364.808594	1274.096436	5.322899	-2254.325195	1291.095947	57.604431	-2575.395996	1497.200073	484.190948	-2688.502686	1423.276978	526.467957	-2642.207520	1285.529785	540.003235	-2609.466553	1156.197632	537.447327	-2351.987549	1127.261230	326.572418	-2372.938477	1109.904663	117.732559	-2540.959229	1171.573242	253.574249	-2555.090088	1145.006958	201.478500	-2550.964355	1140.487671	308.496765	-2583.310303	1088.133423	254.605225	-2551.286133	838.941711	70.161667	-2584.314209	731.100220	89.487984	-2422.207275	791.525879	141.303055	-2475.136475	687.420532	155.181122	-2631.660156	624.349182	120.993675	-2552.809082	562.957397	173.177338	-2758.739746	500.705353	194.664185	-2884.047607	439.944519	201.544998	-2849.307129	517.596130	131.821793	-3034.618164	402.776917	161.331589	-3070.749756	450.199097	221.617615	-3010.909912	293.336975	199.243317	-3057.139160	320.805237	149.060394	-3039.509033	224.434509	238.777130	-3028.108398	196.213806	195.713013	-3089.177246	250.673203	126.114304	-2375.541504	860.675110	436.986023	-2325.187256	758.688477	423.764984	-2259.355957	871.035645	347.200592	-2230.293213	781.573486	339.023468	-2260.031982	625.021545	386.286285	-2179.534668	652.706604	326.104309	-2188.461426	424.476379	301.110657	-2169.176758	299.646362	285.663177	-2229.931885	400.957733	381.650146	-2162.648193	169.604736	337.173859	-2225.307129	130.151031	288.201782	-2057.183350	181.362381	289.913177	-2090.877441	134.303589	338.471039	-1996.766846	146.682465	237.469650	-1964.941284	160.316422	273.396606	-2012.792358	100.319122	353.231934	-2198.171875	1299.735962	84.176529	-2591.156738	1083.870605	536.018005
212	0.848000	-2448.950928	1598.370483	227.124878	-2430.697021	1592.650635	395.799957	-2416.681641	1581.175415	71.382202	-2315.420410	1499.669189	252.205292	-2522.510254	1412.784912	231.200150	-2451.657715	1397.634888	-28.404325	-2476.305908	1263.911865	-60.704445	-2352.497559	1270.209106	5.043972	-2241.370850	1284.279785	57.425247	-2559.503174	1494.599854	485.533020	-2672.089355	1420.188721	528.338928	-2625.152832	1282.797241	541.654968	-2591.758057	1153.683716	539.078247	-2337.629150	1125.971802	326.325256	-2358.369629	1108.715332	117.682945	-2526.756348	1169.719971	253.514389	-2540.712402	1143.032715	201.352936	-2536.620117	1138.838135	308.403961	-2568.624756	1086.178101	254.476059	-2534.287598	836.204285	70.082954	-2566.035645	727.924622	89.487701	-2405.013916	789.880005	141.806046	-2456.330811	685.264465	155.578217	-2611.737793	620.976318	121.559479	-2534.006592	559.400024	174.259995	-2742.073975	500.556793	194.920898	-2868.776367	443.299896	201.559097	-2832.242432	519.742737	131.737778	-3020.447510	410.089752	161.043182	-3055.546875	457.938080	221.682220	-2998.144775	299.978607	199.497849	-3044.571289	328.984528	148.089859	-3029.206055	231.560455	237.521927	-3018.484863	203.171677	193.932343	-3077.995361	259.616394	124.789421	-2362.047852	858.507812	437.452423	-2312.267090	756.363831	424.041229	-2245.978271	867.521729	347.239349	-2218.087646	778.346069	338.548523	-2247.088135	622.459412	386.663300	-2167.964111	651.329529	325.738861	-2175.218750	422.605957	301.478821	-2155.099854	297.891602	285.744751	-2217.281982	398.603027	381.305481	-2148.645508	167.636673	336.995087	-2211.083008	128.599594	287.944855	-2042.984253	179.809189	290.000061	-2076.607178	132.608795	338.374237	-1981.849731	145.705185	237.826599	-1950.937256	159.278503	274.230591	-1998.366333	99.194580	353.686005	-2184.890625	1291.431274	84.048035	-2573.082520	1081.478882	537.637207
213	0.852000	-2434.403564	1596.688599	227.822632	-2415.473877	1590.540894	396.441742	-2402.472900	1579.555420	71.797920	-2300.857422	1497.729980	252.104858	-2509.852295	1411.400513	231.528152	-2439.252441	1396.623901	-28.111681	-2464.671631	1262.950317	-60.221588	-2340.322021	1265.948364	4.838886	-2228.215088	1277.017090	56.921597	-2543.505371	1491.714233	486.920898	-2655.571045	1416.854980	530.285095	-2607.908691	1279.735107	543.425720	-2573.804199	1150.850708	540.803345	-2323.331543	1124.562866	326.117371	-2344.465332	1107.406372	117.199677	-2511.795410	1167.410522	253.068161	-2526.608154	1140.947266	201.247253	-2522.359131	1136.967041	308.315796	-2554.034180	1083.974731	254.270035	-2517.158447	833.056458	70.043671	-2547.515869	724.378052	89.419365	-2388.109131	788.082764	142.378967	-2437.752686	682.720886	156.334290	-2592.277100	617.516418	121.980331	-2514.648926	555.501221	174.990738	-2724.918213	500.213684	195.154861	-2853.181396	446.522888	201.575867	-2814.413818	521.546021	131.781372	-3005.364990	416.922668	160.816422	-3039.342773	465.719574	221.762833	-2985.445801	306.476746	198.944550	-3031.220215	336.679535	147.534714	-3018.880127	238.513229	236.019180	-3008.364502	210.226151	192.625290	-3066.312256	268.592682	123.378197	-2348.365234	856.555481	437.961060	-2298.231201	754.301208	424.528107	-2232.854736	864.344910	347.208984	-2205.394531	775.845154	337.993622	-2234.450928	619.984314	386.932739	-2156.484375	650.230835	325.614105	-2162.371094	420.431030	301.500275	-2141.818359	295.847778	285.584747	-2205.093262	396.117279	380.925629	-2135.476807	165.595856	336.580811	-2197.436523	126.181816	287.049927	-2029.460693	177.972412	290.000885	-2063.259521	130.731674	338.174927	-1968.323120	143.827286	238.229523	-1937.249512	157.534073	274.721771	-1985.065674	97.602310	354.036743	-2171.236816	1282.642822	83.392639	-2554.731934	1078.774048	539.336853
